<svg xmlns="http://www.w3.org/2000/svg" fill="none" viewBox="0 0 504 148" height="148" width="504"><defs><filter color-interpolation-filters="sRGB" id="dfly-white"><feColorMatrix values="0 0 0 0 1  0 0 0 0 1  0 0 0 0 1  0 0 0 1 0" type="matrix"></feColorMatrix></filter></defs><g filter="url(#dfly-white)">
<defs><filter id="grayscale"><feColorMatrix values="0" type="saturate"></feColorMatrix></filter></defs>
<g filter="url(#grayscale)">
<g clip-path="url(#clip0_3790_8834)">
<path fill="white" d="M135.598 64.0825H101.922C107.815 73.71 110.967 84.7593 111.039 96.0418C111.111 107.324 108.1 118.413 102.329 128.114H135.598C147.291 128.114 160.919 119.722 160.919 96.0983C160.919 72.4743 147.316 64.0825 135.598 64.0825ZM131.013 110.034H115.601V82.0612H131.013C140.005 82.0612 144.259 84.1718 144.259 95.9712C144.259 107.77 140.031 110.034 131.038 110.034H131.013Z"></path>
<path fill="white" d="M221.495 64.0825L199.791 106.575V128.648H181.094V106.575L159.594 64.0825H178.852L190.443 92.3856L202.39 64.0825H221.495Z"></path>
<path fill="white" d="M379.585 79.7217V88.8509H422.203V103.346H379.585V112.475H422.203V128.114H363.078V64.0825H422.203V79.7217H379.585Z"></path>
<path fill="white" d="M281.868 107.313C281.868 121.655 272.137 128.648 252.14 128.648C235.786 128.648 225.189 125.47 222.769 110.008L222.539 108.61H239.505L239.734 109.093C242.485 114.179 248.141 114.815 252.14 114.815C258.075 114.815 265.183 113.518 265.183 107.313C265.183 103.422 260.827 102.939 251.758 102.227C239.352 101.337 222.387 100.116 222.412 85.3418C222.412 70.9741 232.143 63.981 252.115 63.981C268.545 64.1335 279.193 67.3122 281.537 82.6971L281.766 84.0703H264.8L264.546 83.5872C261.998 78.5012 256.522 77.8655 252.14 77.8655C243.479 77.8655 239.097 80.4085 239.097 85.3418C239.097 89.2325 243.402 89.6903 252.395 90.4277H252.573C264.928 91.2923 281.893 92.5129 281.868 107.313Z"></path>
<path fill="white" d="M50.8708 44.8833C37.2616 44.9841 24.2496 50.4761 14.6957 60.1516C5.14185 69.8272 -0.171807 82.8943 -0.0768745 96.4798C-0.0768745 97.5987 -0.0769056 98.7177 0.0504636 99.8111L6.87744 96.1747C7.15299 84.6159 11.8003 73.5894 19.8855 65.3106C27.9708 57.0318 38.8951 52.1142 50.4633 51.5458L51.6605 44.9087L50.8708 44.8833ZM50.8708 44.8833C37.2616 44.9841 24.2496 50.4761 14.6957 60.1516C5.14185 69.8272 -0.171807 82.8943 -0.0768745 96.4798C-0.0768745 97.5987 -0.0769056 98.7177 0.0504636 99.8111L6.87744 96.1747C7.15299 84.6159 11.8003 73.5894 19.8855 65.3106C27.9708 57.0318 38.8951 52.1142 50.4633 51.5458L51.6605 44.9087L50.8708 44.8833ZM101.207 88.8764C100.757 85.7647 100.024 82.7004 99.0164 79.7218C95.9149 70.4544 90.2148 62.27 82.5929 56.1398C74.9711 50.0096 65.7474 46.1912 56.0166 45.1376L54.0295 55.818H52.2718C41.2906 55.9188 30.7977 60.3633 23.0948 68.1768C15.3919 75.9903 11.1079 86.5347 11.1825 97.497V98.7685L0.58547 104.363C2.52594 116.306 8.66821 127.168 17.9092 134.997C27.1502 142.826 38.8846 147.11 51.005 147.079C63.1254 147.049 74.8379 142.706 84.0391 134.83C93.2402 126.954 99.3273 116.062 101.207 104.109C101.571 101.582 101.758 99.0327 101.768 96.4798C101.767 93.9098 101.579 91.3432 101.207 88.8001V88.8764ZM50.8708 128.725C44.4565 128.82 38.1586 127.009 32.7787 123.521C27.3988 120.033 23.1802 115.025 20.6598 109.136C18.1395 103.247 17.4313 96.7429 18.6255 90.4509C19.8197 84.1589 22.8622 78.3638 27.3658 73.8033C31.8694 69.2428 37.6305 66.1231 43.9157 64.8411C50.201 63.5592 56.7262 64.173 62.6609 66.6045C68.5955 69.0361 73.6714 73.1753 77.2422 78.4954C80.8131 83.8155 82.7175 90.0759 82.7131 96.4798C82.7606 104.96 79.4333 113.112 73.4624 119.144C67.4915 125.176 59.3656 128.594 50.8708 128.648V128.725Z"></path>
<path fill="white" d="M482.907 75.6275L466.731 106.575V128.648H448.033V106.575L426.508 64.0825H445.766L457.357 92.3856L469.329 64.0825H471.928L482.907 75.6275Z"></path>
<path fill="white" d="M352.124 107.313C352.124 121.655 342.393 128.648 322.396 128.648C306.042 128.648 295.419 125.47 292.999 110.008L292.77 108.61H309.736L309.99 109.093C312.742 114.179 318.371 114.815 322.396 114.815C328.332 114.815 335.439 113.518 335.439 107.313C335.439 103.422 331.083 102.939 322.014 102.227C309.608 101.337 292.617 100.116 292.668 85.3418C292.668 70.9741 302.374 63.981 322.371 63.981C338.801 64.1335 349.424 67.3122 351.793 82.6971L351.997 84.0703H335.057L334.776 83.5872C332.229 78.5012 326.778 77.8655 322.396 77.8655C313.761 77.8655 309.354 80.4085 309.354 85.3418C309.354 89.2325 313.659 89.6903 322.625 90.4277H322.804C335.286 91.2923 352.124 92.5129 352.124 107.313Z"></path>
<path fill="#00FFE0" d="M504 64.0825L494.37 74.7375L485.607 64.3877L504 64.0825Z"></path>
<path fill="#00FFE0" d="M500.714 82.2138L483.061 64.3877H485.684L500.714 82.2138Z"></path>
<path fill="white" d="M482.729 75.6019L470.808 62.8617H468.999L463.344 54.6733L482.729 75.6019Z"></path>
<path fill="white" d="M421.057 13.2234L407.53 26.9299L421.057 40.6618V54.0632H414.892L397.977 36.7457L388.297 26.9299L397.977 17.1141L401.824 13.2234H388.272V54.0632H374.822V0H421.184L421.057 13.2234ZM311.876 0V13.5285H364.479V0H311.876ZM311.876 33.7959H364.479V20.2674H311.876V33.7959ZM311.876 54.1395H364.479V40.611H311.876V54.1395ZM159.924 0.0762855V54.1395H175.387V0L159.924 0.0762855ZM288.313 0.0762855V20.4199H262.253V0.0762855H249.032V54.1395H262.253V33.7959H288.44V54.1395H301.661V0L288.313 0.0762855ZM237.925 0.0762855V32.1684V34.2536H199.511V54.0886H186.774V34.2536V22.4543V0.0254156H237.722L237.925 0.0762855ZM224.755 13.5794H199.562L208.248 22.4288H224.755V13.5794ZM147.748 0H101.895V13.5285L129.381 40.5347H101.742V54.0632H147.595V40.5347L120.313 13.5285H147.799L147.748 0Z"></path>
<path fill="#00FFE0" d="M50.8708 44.8833C37.2616 44.9841 24.2496 50.4761 14.6957 60.1516C5.14185 69.8272 -0.171807 82.8943 -0.0768745 96.4798C-0.0768745 97.5987 -0.0769056 98.7177 0.0504636 99.8111L6.87744 96.1747C7.15299 84.6159 11.8003 73.5894 19.8855 65.3106C27.9708 57.0318 38.8951 52.1142 50.4633 51.5458L51.6605 44.9087L50.8708 44.8833Z"></path>
<path fill="white" d="M463.344 54.6733L480.131 80.9421L482.908 75.6273L463.344 54.6733Z"></path>
</g>
<defs>
<clipPath id="clip0_3790_8834">
<rect fill="white" height="148" width="504"></rect>
</clipPath>
</defs>
</g>
</g></svg>
