<svg width="120" height="72" viewBox="0 0 120 72" fill="none" xmlns="http://www.w3.org/2000/svg"><g clip-path="url(#clip0_3415_8815)" fill="#F2F2F2"><path d="M30.3062 56.3503C36.7979 65.7981 47.6715 72 60.0058 72c19.8808 0 36.0058-16.1134 36.0058-36.0058 0-.3942-.0116-.7883-.0348-1.1824L30.3062 56.3503z"></path><path d="M60.0058 1.15923c9.1116 0 17.7247 3.4893 24.2512 9.83027 6.3062 6.1208 10.0273 14.2702 10.5258 22.9992L30.7815 54.9709c-3.6748-5.6571-5.6223-12.1952-5.6223-18.9767 0-19.2085 15.6265-34.83497 34.8466-34.83497zm0-1.15923C40.1133 0 24 16.1133 24 36.0058c0 7.5582 2.3301 14.56 6.3062 20.3445l65.6706-21.5269C95.3508 15.4874 79.4925 0 60.0058 0z"></path></g><defs><clipPath id="clip0_3415_8815"><path fill="#fff" transform="translate(24)" d="M0 0h72v72H0z"></path></clipPath></defs></svg>